<svg width="71" height="20" viewBox="0 0 71 20" fill="none" xmlns="http://www.w3.org/2000/svg">
<path d="M0 0H3.63326V16.5526H14.6592V20H0V0ZM21.9762 6.61597V20H18.4186V0H22.2537L29.495 13.1812V0H33.0526V20H29.3184L21.9762 6.61597ZM52.2281 12.0913C52.1777 12.801 52.0768 13.4854 51.9001 14.1698C51.7235 14.8542 51.4964 15.488 51.1937 16.1217C50.8909 16.7554 50.4872 17.3384 49.9826 17.8454C49.3266 18.5298 48.5192 19.0621 47.5604 19.4423C46.6016 19.7972 45.5419 20 44.4065 20H37.6446V0H44.3813C45.5167 0 46.5764 0.17744 47.5352 0.557668C48.494 0.912548 49.3013 1.44487 49.9574 2.15463C50.462 2.68695 50.8657 3.24461 51.1684 3.87833C51.4712 4.48669 51.7235 5.14575 51.8749 5.83016C52.0515 6.51458 52.1524 7.19899 52.2029 7.90874C52.2534 8.6185 52.2786 9.30291 52.2786 10.0127C52.3038 10.6717 52.2786 11.3815 52.2281 12.0913ZM48.5949 8.54246C48.5696 8.03549 48.5192 7.52852 48.4183 7.02155C48.3173 6.51457 48.1912 6.0583 47.9893 5.60203C47.8127 5.14575 47.5352 4.74018 47.1819 4.3853C46.8539 4.05577 46.4502 3.77693 45.9709 3.57414C45.4915 3.37136 44.9616 3.26996 44.3813 3.26996H41.2527V16.73H44.3813C44.9616 16.73 45.4915 16.6286 45.9709 16.4259C46.4502 16.2231 46.8539 15.9442 47.1819 15.6147C47.5352 15.2598 47.8127 14.8542 47.9893 14.398C48.166 13.9417 48.3173 13.4601 48.4183 12.9785C48.5192 12.4715 48.5696 11.9645 48.5949 11.4575C48.6201 10.9506 48.6201 10.4436 48.6201 10.0127C48.6201 9.53105 48.6201 9.04943 48.5949 8.54246ZM63.0522 12.4461H59.9993V20H56.3408V0H64.0867C65.2726 0 66.2818 0.17744 67.1649 0.532319C68.0227 0.887199 68.7544 1.34347 69.3348 1.92649C69.9151 2.50951 70.3188 3.16857 70.5963 3.90368C70.8738 4.63878 71 5.42459 71 6.23574C71 7.57921 70.672 8.7706 69.9908 9.75919C69.3348 10.7478 68.5274 11.6857 66.8621 12.4208L71 20H67.064L63.0522 12.4461ZM67.1649 5.06971C67.0135 4.71483 66.8117 4.3853 66.5089 4.10646C66.2313 3.82763 65.8781 3.59949 65.4744 3.4474C65.0707 3.29531 64.6166 3.21926 64.0867 3.21926H59.9488V9.20152H64.1372C65.1716 9.20152 65.9538 8.94804 66.5341 8.44106C67.0892 7.93409 67.3667 7.19899 67.3667 6.23574C67.392 5.80482 67.3163 5.42459 67.1649 5.06971Z" fill="white"/>
</svg>
