<svg width="71" height="16" viewBox="0 0 71 16" fill="none" xmlns="http://www.w3.org/2000/svg">
<path d="M33.2617 0C33.968 0.000246173 34.541 0.572916 34.541 1.2793V14.7119C34.541 15.4183 33.968 15.991 33.2617 15.9912H1.2793C0.572794 15.9912 3.85246e-05 15.4184 0 14.7119V1.2793C0 0.572764 0.57277 5.15119e-09 1.2793 0H33.2617ZM69.7207 8.95508C70.4272 8.95508 71 9.52784 71 10.2344V14.7119C71 15.4184 70.4272 15.9912 69.7207 15.9912H37.7383C37.032 15.991 36.459 15.4183 36.459 14.7119V10.2344C36.459 9.52799 37.032 8.95531 37.7383 8.95508H69.7207ZM2.87793 7.03613C2.34839 7.03638 1.91919 7.46557 1.91895 7.99512C1.91895 8.52487 2.34824 8.95484 2.87793 8.95508H31.6621C32.192 8.95508 32.6221 8.52502 32.6221 7.99512C32.6218 7.46542 32.1919 7.03613 31.6621 7.03613H2.87793ZM69.7207 0C70.4272 2.96359e-06 71 0.572766 71 1.2793V5.75684C71 6.46335 70.4272 7.03613 69.7207 7.03613H37.7383C37.032 7.0359 36.459 6.46321 36.459 5.75684V1.2793C36.459 0.572908 37.032 0.000233745 37.7383 0H69.7207Z" fill="white"/>
</svg>
