<svg width="1248" height="33" viewBox="0 0 1248 33" fill="none" xmlns="http://www.w3.org/2000/svg">
<path d="M219.206 0.00280044C220.379 0.0623163 221.32 1.00299 221.379 2.17594C221.382 2.21508 221.382 2.25449 221.382 2.29412V23.5147C221.382 24.465 222.153 25.2353 223.103 25.2353C224.053 25.2353 224.824 24.465 224.824 23.5147V2.29412C224.824 1.02711 225.851 1.10765e-07 227.118 0H251.206C252.473 1.03719e-06 253.5 1.02711 253.5 2.29412V29.8235C253.5 31.0905 252.473 32.1176 251.206 32.1176H227.118C225.851 32.1176 224.824 31.0905 224.824 29.8235V28.6765H195C193.733 28.6765 192.706 27.6493 192.706 26.3824V2.29412C192.706 1.06674 193.67 0.0643012 194.882 0.00280044C194.921 0.000814555 194.96 3.46477e-09 195 0H219.088C219.128 2.7358e-08 219.167 0.000814532 219.206 0.00280044ZM58.5 0C59.7669 0 60.7941 1.02711 60.7941 2.29412V26.3824C60.7941 27.6493 59.7669 28.6765 58.5 28.6765H2.29412C1.02711 28.6765 0 27.6493 0 26.3824V2.29412C0 1.02711 1.02711 0 2.29412 0H58.5ZM122.735 0C124.002 0 125.029 1.02711 125.029 2.29412V26.3824C125.029 27.6493 124.002 28.6765 122.735 28.6765H98.6471C97.3801 28.6765 96.3529 27.6493 96.3529 26.3824V5.16176C96.3529 4.21151 95.5827 3.44118 94.6324 3.44118C93.682 3.44118 92.9118 4.21151 92.9118 5.16176V26.3824C92.9118 27.6493 91.8846 28.6765 90.6176 28.6765H66.5294C65.2625 28.6765 64.2353 27.6493 64.2353 26.3824V2.29412C64.2353 1.02711 65.2625 0 66.5294 0H122.735ZM154.853 0C156.12 2.2153e-07 157.147 1.02711 157.147 2.29412V23.5147C157.147 24.465 157.917 25.2353 158.868 25.2353C159.818 25.2353 160.588 24.465 160.588 23.5147V18.3529C160.588 17.086 161.615 16.0588 162.882 16.0588H186.971C188.238 16.0588 189.265 17.086 189.265 18.3529V26.3824C189.265 27.6493 188.238 28.6765 186.971 28.6765H130.765C129.498 28.6765 128.471 27.6493 128.471 26.3824V2.29412C128.471 1.02711 129.498 9.60868e-07 130.765 0H154.853ZM346.412 16.0588C347.679 16.0588 348.706 17.086 348.706 18.3529V26.3824C348.706 27.6493 347.679 28.6765 346.412 28.6765H290.206C288.939 28.6765 287.912 27.6493 287.912 26.3824V18.3529C287.912 17.086 288.939 16.0588 290.206 16.0588H346.412ZM410.647 0C411.914 0 412.941 1.02711 412.941 2.29412V26.3824C412.941 27.6493 411.914 28.6765 410.647 28.6765H386.559C385.292 28.6765 384.265 27.6493 384.265 26.3824V5.16176C384.265 4.21151 383.494 3.44118 382.544 3.44118C381.594 3.44118 380.824 4.21151 380.824 5.16176V26.3824C380.824 27.6493 379.796 28.6765 378.529 28.6765H354.441C353.174 28.6765 352.147 27.6493 352.147 26.3824V2.29412C352.147 1.02711 353.174 0 354.441 0H410.647ZM474.882 0C476.149 5.53826e-08 477.176 1.02711 477.176 2.29412V22.9412C477.176 24.2082 476.149 25.2353 474.882 25.2353H461.118V26.3824C461.118 27.6493 460.09 28.6765 458.824 28.6765H434.735C433.468 28.6765 432.441 27.6493 432.441 26.3824V25.2353H418.676C417.41 25.2353 416.382 24.2082 416.382 22.9412V2.29412C416.382 1.02711 417.41 9.74736e-08 418.676 0H474.882ZM539.118 0C540.385 0 541.412 1.02711 541.412 2.29412V6.88235C541.412 8.14934 540.385 9.17647 539.118 9.17647H485.779C484.829 9.17647 484.059 9.94678 484.059 10.8971C484.059 11.8473 484.829 12.6176 485.779 12.6176H539.691C540.642 12.6176 541.412 13.388 541.412 14.3382C541.412 15.2885 540.642 16.0588 539.691 16.0588H485.73C484.807 16.0588 484.059 16.8291 484.059 17.7794C484.059 18.7297 484.807 19.5 485.73 19.5H539.118C540.385 19.5 541.412 20.5271 541.412 21.7941V26.3824C541.412 27.6493 540.385 28.6765 539.118 28.6765H482.912C482.872 28.6765 482.833 28.6757 482.794 28.6737C481.582 28.6122 480.618 27.6097 480.618 26.3824V2.29412C480.618 1.06674 481.582 0.0643012 482.794 0.00280044C482.833 0.000814567 482.872 3.46476e-09 482.912 0H539.118ZM603.353 0C604.62 0 605.647 1.02711 605.647 2.29412V10.3235C605.647 11.5905 604.62 12.6176 603.353 12.6176H581.955C581.106 12.6176 580.412 13.388 580.412 14.3382C580.412 15.2885 581.106 16.0588 581.955 16.0588H603.353C604.62 16.0588 605.647 17.086 605.647 18.3529V26.3824C605.647 27.6493 604.62 28.6765 603.353 28.6765H579.265C577.997 28.6765 576.971 27.6493 576.971 26.3824V14.3382C576.971 13.388 576.202 12.6176 575.25 12.6176C574.298 12.6176 573.529 13.388 573.529 14.3382V26.3824C573.529 27.6493 572.502 28.6765 571.235 28.6765H547.147C545.88 28.6765 544.853 27.6493 544.853 26.3824V2.29412C544.853 1.02711 545.88 1.10765e-07 547.147 0H603.353ZM667.588 0C668.856 0 669.882 1.02711 669.882 2.29412V10.3235C669.882 11.5905 668.856 12.6176 667.588 12.6176H639.371V12.6215C638.476 12.6809 637.765 13.4268 637.765 14.3382V26.3824C637.765 27.6493 636.738 28.6765 635.471 28.6765H611.382C610.115 28.6765 609.088 27.6493 609.088 26.3824V2.29412C609.088 1.02711 610.115 2.09267e-07 611.382 0H667.588ZM731.824 0C733.091 0 734.118 1.02711 734.118 2.29412V10.3235C734.118 11.5905 733.091 12.6176 731.824 12.6176H710.425C709.576 12.6176 708.882 13.388 708.882 14.3382C708.882 15.2885 709.576 16.0588 710.425 16.0588H731.824C733.091 16.0588 734.118 17.086 734.118 18.3529V26.3824C734.118 27.6493 733.091 28.6765 731.824 28.6765H707.735C706.468 28.6765 705.441 27.6493 705.441 26.3824V14.3382C705.441 13.388 704.673 12.6176 703.721 12.6176C702.769 12.6176 702 13.388 702 14.3382V26.3824C702 27.6493 700.973 28.6765 699.706 28.6765H675.618C674.35 28.6765 673.324 27.6493 673.324 26.3824V2.29412C673.324 1.02711 674.35 1.10765e-07 675.618 0H731.824ZM796.059 0C797.326 0 798.353 1.02711 798.353 2.29412V6.88235C798.353 8.14934 797.326 9.17647 796.059 9.17647H742.721C741.769 9.17647 741 9.94678 741 10.8971C741 11.8473 741.769 12.6176 742.721 12.6176H796.632C797.584 12.6176 798.353 13.388 798.353 14.3382C798.353 15.2885 797.584 16.0588 796.632 16.0588H742.669C741.746 16.0588 741 16.8291 741 17.7794C741 18.7297 741.746 19.5 742.669 19.5H796.059C797.326 19.5 798.353 20.5271 798.353 21.7941V26.3824C798.353 27.6493 797.326 28.6765 796.059 28.6765H739.853C739.813 28.6765 739.773 28.6757 739.733 28.6737C738.522 28.6122 737.559 27.6097 737.559 26.3824V2.29412C737.559 1.06674 738.522 0.0643012 739.733 0.00280044C739.773 0.000814567 739.813 3.46476e-09 739.853 0H796.059ZM860.294 0C861.562 5.53826e-08 862.588 1.02711 862.588 2.29412V22.9412C862.588 24.2082 861.562 25.2353 860.294 25.2353H846.529V26.3824C846.529 27.6493 845.503 28.6765 844.235 28.6765H820.147C818.88 28.6765 817.853 27.6493 817.853 26.3824V25.2353H804.088C802.821 25.2353 801.794 24.2082 801.794 22.9412V2.29412C801.794 1.02711 802.821 9.74736e-08 804.088 0H860.294ZM924.529 0C925.757 0 926.76 0.963851 926.824 2.17594C926.824 2.21508 926.824 2.25449 926.824 2.29412V26.3824C926.824 27.6493 925.797 28.6765 924.529 28.6765H900.441C899.174 28.6765 898.147 27.6493 898.147 26.3824V14.3382C898.147 13.388 897.379 12.6176 896.427 12.6176C895.474 12.6176 894.706 13.388 894.706 14.3382V26.3824C894.706 27.6493 893.679 28.6765 892.412 28.6765H868.324C867.056 28.6765 866.029 27.6493 866.029 26.3824V2.29412C866.029 1.02711 867.056 1.10765e-07 868.324 0H924.529ZM988.765 0C990.032 5.53826e-08 991.059 1.02711 991.059 2.29412V22.9412C991.059 24.2082 990.032 25.2353 988.765 25.2353H975V26.3824C975 27.6493 973.973 28.6765 972.706 28.6765H948.618C947.35 28.6765 946.324 27.6493 946.324 26.3824V25.2353H932.559C931.291 25.2353 930.265 24.2082 930.265 22.9412V2.29412C930.265 1.02711 931.291 9.74736e-08 932.559 0H988.765ZM1053 16.0588C1054.27 16.0588 1055.29 17.086 1055.29 18.3529V26.3824C1055.29 27.6493 1054.27 28.6765 1053 28.6765H996.794C995.527 28.6765 994.5 27.6493 994.5 26.3824V18.3529C994.5 17.086 995.527 16.0588 996.794 16.0588H1053ZM1117.24 0C1118.5 0 1119.53 1.02711 1119.53 2.29412V26.3824C1119.53 27.6493 1118.5 28.6765 1117.24 28.6765H1061.03C1059.76 28.6765 1058.74 27.6493 1058.74 26.3824V2.29412C1058.74 1.02711 1059.76 0 1061.03 0H1117.24ZM1181.47 0C1182.74 0 1183.76 1.02711 1183.76 2.29412V26.3824C1183.76 27.6493 1182.74 28.6765 1181.47 28.6765H1157.38C1156.11 28.6765 1155.09 27.6493 1155.09 26.3824V5.16176C1155.09 4.21151 1154.32 3.44118 1153.37 3.44118C1152.42 3.44118 1151.65 4.21151 1151.65 5.16176V26.3824C1151.65 27.6493 1150.62 28.6765 1149.35 28.6765H1125.26C1124 28.6765 1122.97 27.6493 1122.97 26.3824V2.29412C1122.97 1.02711 1124 0 1125.26 0H1181.47ZM1245.71 0C1246.97 0 1248 1.02711 1248 2.29412V6.88235C1248 8.14934 1246.97 9.17647 1245.71 9.17647H1192.37C1191.42 9.17647 1190.65 9.94678 1190.65 10.8971C1190.65 11.8473 1191.42 12.6176 1192.37 12.6176H1245.71C1246.97 12.6176 1248 13.6448 1248 14.9118V26.3824C1248 26.422 1248 26.4614 1248 26.5006C1247.94 27.7126 1246.93 28.6765 1245.71 28.6765H1189.5C1188.23 28.6765 1187.21 27.6493 1187.21 26.3824V21.7941C1187.21 20.5271 1188.23 19.5 1189.5 19.5H1242.84C1243.79 19.5 1244.56 18.7297 1244.56 17.7794C1244.56 16.8291 1243.79 16.0588 1242.84 16.0588H1189.5C1188.23 16.0588 1187.21 15.0317 1187.21 13.7647V2.29412C1187.21 1.06674 1188.17 0.0643012 1189.38 0.00280044C1189.42 0.000814601 1189.46 3.46473e-09 1189.5 0H1245.71ZM5.16176 12.6176C4.21151 12.6176 3.44118 13.388 3.44118 14.3382C3.44118 15.2885 4.21151 16.0588 5.16176 16.0588H55.6324C56.5826 16.0588 57.3529 15.2885 57.3529 14.3382C57.3529 13.388 56.5826 12.6176 55.6324 12.6176H5.16176ZM1063.9 12.6176C1062.95 12.6176 1062.18 13.388 1062.18 14.3382C1062.18 15.2885 1062.95 16.0588 1063.9 16.0588H1114.37C1115.32 16.0588 1116.09 15.2885 1116.09 14.3382C1116.09 13.388 1115.32 12.6176 1114.37 12.6176H1063.9ZM346.412 0C347.679 0 348.706 1.02711 348.706 2.29412V10.3235C348.706 11.5905 347.679 12.6176 346.412 12.6176H290.206C288.939 12.6176 287.912 11.5905 287.912 10.3235V2.29412C287.912 1.02711 288.939 0 290.206 0H346.412ZM1053 0C1054.27 0 1055.29 1.02711 1055.29 2.29412V10.3235C1055.29 11.5905 1054.27 12.6176 1053 12.6176H996.794C995.527 12.6176 994.5 11.5905 994.5 10.3235V2.29412C994.5 1.02711 995.527 0 996.794 0H1053ZM550.015 3.44118C549.064 3.44118 548.294 4.21151 548.294 5.16176C548.294 6.11205 549.064 6.88235 550.015 6.88235H600.485C601.437 6.88235 602.206 6.11205 602.206 5.16176C602.206 4.21151 601.437 3.44118 600.485 3.44118H550.015ZM614.25 3.44118C613.298 3.44118 612.529 4.21151 612.529 5.16176C612.529 6.11205 613.298 6.88235 614.25 6.88235H664.721C665.673 6.88235 666.441 6.11205 666.441 5.16176C666.441 4.21151 665.673 3.44118 664.721 3.44118H614.25ZM678.485 3.44118C677.533 3.44118 676.765 4.21151 676.765 5.16176C676.765 6.11205 677.533 6.88235 678.485 6.88235H728.956C729.908 6.88235 730.677 6.11205 730.677 5.16176C730.677 4.21151 729.908 3.44118 728.956 3.44118H678.485ZM871.191 3.44118C870.239 3.44118 869.471 4.21151 869.471 5.16176C869.471 6.11205 870.239 6.88235 871.191 6.88235H921.662C922.614 6.88235 923.382 6.11205 923.382 5.16176C923.382 4.21151 922.614 3.44118 921.662 3.44118H871.191Z" fill="white"/>
</svg>
