<svg width="149" height="16" viewBox="0 0 149 16" fill="none" xmlns="http://www.w3.org/2000/svg">
<path d="M3.41309 0C3.60082 0 3.75488 0.153587 3.75488 0.34082V3.06348H6.48535C6.67306 3.06351 6.82617 3.21708 6.82617 3.4043V6.12793H9.21582V3.4043C9.21582 3.21706 9.36988 3.06348 9.55762 3.06348H12.2881V0.34082C12.2881 0.153705 12.4413 0.000191812 12.6289 0H15.7012C15.8889 0 16.043 0.153587 16.043 0.34082V15.6592C16.043 15.8464 15.8889 16 15.7012 16H12.6289C12.4413 15.9998 12.2881 15.8463 12.2881 15.6592V6.80859H9.89844V9.53223C9.89824 9.71918 9.74507 9.87189 9.55762 9.87207H6.48535C6.29774 9.87207 6.14376 9.71929 6.14355 9.53223V6.80859H3.75488V15.6592C3.75488 15.8464 3.60082 16 3.41309 16H0.341797C0.154065 16 0 15.8464 0 15.6592V0.34082C0 0.153587 0.154065 0 0.341797 0H3.41309ZM28.5273 0C28.7149 0.000151918 28.8682 0.15368 28.8682 0.34082V3.06348H31.5986C31.7864 3.06348 31.9404 3.21706 31.9404 3.4043V12.5957C31.9404 12.7829 31.7864 12.9365 31.5986 12.9365H28.8682V15.6592C28.8682 15.8463 28.7149 15.9998 28.5273 16H22.3828C22.1952 15.9998 22.042 15.8463 22.042 15.6592V12.9365H19.3115C19.1238 12.9365 18.9697 12.7829 18.9697 12.5957V3.4043C18.9697 3.21706 19.1238 3.06348 19.3115 3.06348H22.042V0.34082C22.042 0.153683 22.1952 0.000156322 22.3828 0H28.5273ZM38.2715 0C38.4591 0.000174913 38.6123 0.153694 38.6123 0.34082V3.06348H41.3428C41.5305 3.06348 41.6845 3.21709 41.6846 3.4043V6.12793H44.415C44.6026 6.12793 44.7566 6.28072 44.7568 6.46777V9.19141H47.1455V0.34082C47.1455 0.153587 47.2996 0 47.4873 0H50.5596C50.7471 0.000260597 50.9004 0.153747 50.9004 0.34082V15.6592C50.9004 15.8463 50.7471 15.9997 50.5596 16H47.4873C47.2996 16 47.1455 15.8464 47.1455 15.6592V12.9365H44.415C44.2273 12.9365 44.0742 12.7829 44.0742 12.5957V9.87207H41.3428C41.1553 9.87187 41.0021 9.71922 41.002 9.53223V6.80859H38.6123V15.6592C38.6123 15.8463 38.4591 15.9998 38.2715 16H35.1992C35.0115 16 34.8574 15.8464 34.8574 15.6592V0.34082C34.8574 0.153587 35.0115 0 35.1992 0H38.2715ZM63.3818 0C63.5695 0.000118232 63.7227 0.15366 63.7227 0.34082V3.06348H66.4531C66.6409 3.06348 66.7949 3.21706 66.7949 3.4043V12.5957C66.7949 12.7829 66.6408 12.9365 66.4531 12.9365H63.7227V15.6592C63.7227 15.8463 63.5695 15.9999 63.3818 16H57.2373C57.0497 15.9998 56.8965 15.8463 56.8965 15.6592V12.9365H54.166C53.9783 12.9365 53.8242 12.7829 53.8242 12.5957V3.4043C53.8242 3.21706 53.9783 3.06348 54.166 3.06348H56.8965V0.34082C56.8965 0.153704 57.0497 0.000189999 57.2373 0H63.3818ZM73.1318 0C73.3196 0 73.4736 0.153587 73.4736 0.34082V6.12793H76.2041C76.3916 6.12799 76.5447 6.28076 76.5449 6.46777V12.2549H78.9346V6.46777C78.9348 6.28072 79.0888 6.12793 79.2764 6.12793H82.0068V0.34082C82.0068 0.153684 82.1601 0.000158598 82.3477 0H85.4199C85.6077 0 85.7617 0.153587 85.7617 0.34082V6.46777C85.7617 6.65501 85.6077 6.80859 85.4199 6.80859H82.6895V12.5957C82.6895 12.7829 82.5354 12.9365 82.3477 12.9365H79.6172V15.6592C79.6172 15.8463 79.4639 15.9998 79.2764 16H76.2041C76.0164 16 75.8623 15.8464 75.8623 15.6592V12.9365H73.1318C72.9442 12.9364 72.791 12.7829 72.791 12.5957V6.80859H70.0596C69.872 6.80835 69.7188 6.65486 69.7188 6.46777V0.34082C69.7188 0.153737 69.872 0.000244471 70.0596 0H73.1318ZM101.308 0C101.495 0 101.649 0.153587 101.649 0.34082V3.4043C101.649 3.5915 101.495 3.74512 101.308 3.74512H92.4336V6.12793H101.308C101.495 6.12793 101.649 6.28066 101.649 6.46777V9.53223C101.649 9.71929 101.495 9.87207 101.308 9.87207H92.4336V12.2549H101.308C101.495 12.2549 101.649 12.4085 101.649 12.5957V15.6592C101.649 15.8464 101.495 16 101.308 16H92.0918C91.9042 15.9998 91.751 15.8463 91.751 15.6592V12.9365H89.0205C88.8328 12.9365 88.6787 12.7829 88.6787 12.5957V9.53223C88.6787 9.34499 88.8328 9.19141 89.0205 9.19141H91.751V6.80859H89.0205C88.8328 6.80859 88.6787 6.65501 88.6787 6.46777V3.4043C88.6787 3.21706 88.8328 3.06348 89.0205 3.06348H91.751V0.34082C91.751 0.153704 91.9042 0.000189999 92.0918 0H101.308ZM114.307 0C114.494 5.18696e-05 114.647 0.153619 114.647 0.34082V3.06348H117.379C117.566 3.06368 117.72 3.21719 117.72 3.4043V6.46777C117.72 6.65488 117.566 6.80839 117.379 6.80859H114.647V9.19141H117.379C117.566 9.19161 117.72 9.34512 117.72 9.53223V15.6592C117.72 15.8463 117.566 15.9998 117.379 16H114.307C114.119 16 113.965 15.8464 113.965 15.6592V9.87207H108.504V15.6592C108.504 15.8464 108.35 16 108.162 16H105.091C104.903 16 104.749 15.8464 104.749 15.6592V3.4043C104.749 3.21706 104.903 3.06348 105.091 3.06348H107.821V0.34082C107.821 0.153744 107.975 0.000256288 108.162 0H114.307ZM132.757 0C132.944 0.000206315 133.098 0.153714 133.098 0.34082V3.4043C133.098 3.59138 132.944 3.74491 132.757 3.74512H123.882V6.12793H129.685C129.872 6.12798 130.025 6.2807 130.025 6.46777V9.19141H132.757C132.944 9.19161 133.098 9.34512 133.098 9.53223V12.5957C133.098 12.7828 132.944 12.9363 132.757 12.9365H130.025V15.6592C130.025 15.8464 129.872 15.9999 129.685 16H120.469C120.281 16 120.127 15.8464 120.127 15.6592V12.5957C120.127 12.4085 120.281 12.2549 120.469 12.2549H129.343V9.87207H123.54C123.353 9.87181 123.199 9.71914 123.199 9.53223V6.80859H120.469C120.281 6.80859 120.127 6.65501 120.127 6.46777V3.4043C120.127 3.21706 120.281 3.06348 120.469 3.06348H123.199V0.34082C123.199 0.153744 123.353 0.000256288 123.54 0H132.757ZM148.138 0C148.325 7.36486e-05 148.479 0.153632 148.479 0.34082V3.4043C148.478 3.59146 148.325 3.74504 148.138 3.74512H139.263V6.12793H148.138C148.325 6.128 148.478 6.28071 148.479 6.46777V9.53223C148.478 9.71925 148.325 9.872 148.138 9.87207H139.263V12.2549H148.138C148.325 12.255 148.479 12.4085 148.479 12.5957V15.6592C148.479 15.8464 148.325 15.9999 148.138 16H138.922C138.734 16 138.58 15.8464 138.58 15.6592V12.9365H135.85C135.662 12.9365 135.509 12.7829 135.509 12.5957V9.53223C135.509 9.345 135.662 9.19142 135.85 9.19141H138.58V6.80859H135.85C135.662 6.80858 135.509 6.655 135.509 6.46777V3.4043C135.509 3.21707 135.662 3.06349 135.85 3.06348H138.58V0.34082C138.58 0.153587 138.734 0 138.922 0H148.138ZM22.7246 12.2549H28.1855V3.74512H22.7246V12.2549ZM57.5791 3.74512V12.2549H63.04V3.74512H57.5791ZM108.504 6.12793H113.965V3.74512H108.504V6.12793Z" fill="white"/>
</svg>
