<svg width="61" height="28" viewBox="0 0 61 28" fill="none" xmlns="http://www.w3.org/2000/svg">
<path d="M18.0615 11.5632C18.7495 11.5632 19.3072 11.0057 19.3072 10.3179V5.54915C19.3072 3.86259 20.6798 2.49049 22.367 2.49049C24.0542 2.49049 25.4269 3.86259 25.4269 5.54915V10.3179C25.4269 11.0057 25.9846 11.5632 26.6726 11.5632C27.3605 11.5632 27.9183 11.0057 27.9183 10.3179V5.54915C27.9183 2.4895 25.4279 0 22.367 0C19.3062 0 16.8158 2.4895 16.8158 5.54915V10.3179C16.8158 11.0057 17.3735 11.5632 18.0615 11.5632Z" fill="white"/>
<path d="M5.86683 0C2.63195 0 0 2.63096 0 5.86461C0 9.09827 2.63195 11.7292 5.86683 11.7292C9.10171 11.7292 11.7337 9.09827 11.7337 5.86461C11.7337 2.63096 9.10171 0 5.86683 0ZM5.86683 9.23873C4.00556 9.23873 2.49144 7.72518 2.49144 5.86461C2.49144 4.00405 4.00556 2.49049 5.86683 2.49049C7.7281 2.49049 9.24223 4.00405 9.24223 5.86461C9.24223 7.72518 7.7281 9.23873 5.86683 9.23873Z" fill="white"/>
<path d="M22.3676 16.271C19.1327 16.271 16.5007 18.9019 16.5007 22.1356C16.5007 25.3692 19.1327 28.0002 22.3676 28.0002C25.6024 28.0002 28.2344 25.3692 28.2344 22.1356C28.2344 18.9019 25.6024 16.271 22.3676 16.271ZM22.3676 25.5097C20.5063 25.5097 18.9922 23.9961 18.9922 22.1356C18.9922 20.275 20.5063 18.7614 22.3676 18.7614C24.2288 18.7614 25.743 20.275 25.743 22.1356C25.743 23.9961 24.2288 25.5097 22.3676 25.5097Z" fill="white"/>
<path d="M53.3676 7.11287V10.318C53.3676 11.0057 53.9253 11.5632 54.6133 11.5632C55.3013 11.5632 55.859 11.0057 55.859 10.318V7.11287C58.4976 6.54039 60.4801 4.18837 60.4801 1.38175C60.4801 0.694043 59.9224 0.136505 59.2344 0.136505C58.5464 0.136505 57.9887 0.694043 57.9887 1.38175C57.9887 3.24232 56.4746 4.75587 54.6133 4.75587C52.752 4.75587 51.2379 3.24232 51.2379 1.38175C51.2379 0.694043 50.6801 0.136505 49.9922 0.136505C49.3042 0.136505 48.7465 0.694043 48.7465 1.38175C48.7465 4.18837 50.729 6.54039 53.3676 7.11287Z" fill="white"/>
<path d="M59.2344 16.422C58.5464 16.422 57.9887 16.9795 57.9887 17.6672C57.9887 19.5278 56.4746 21.0413 54.6133 21.0413C52.752 21.0413 51.2379 19.5278 51.2379 17.6672C51.2379 16.9795 50.6801 16.422 49.9922 16.422C49.3042 16.422 48.7465 16.9795 48.7465 17.6672C48.7465 20.4738 50.729 22.8259 53.3676 23.3983V26.6034C53.3676 27.2912 53.9253 27.8487 54.6133 27.8487C55.3013 27.8487 55.859 27.2912 55.859 26.6034V23.3983C58.4976 22.8259 60.4801 20.4738 60.4801 17.6672C60.4801 16.9795 59.9224 16.422 59.2344 16.422Z" fill="white"/>
<path d="M10.1717 16.4177C9.48376 16.4177 8.92601 16.9752 8.92601 17.663V20.8737H2.80638V17.663C2.80638 16.9752 2.24863 16.4177 1.56066 16.4177C0.872691 16.4177 0.314941 16.9752 0.314941 17.663V26.5925C0.314941 27.2802 0.872691 27.8378 1.56066 27.8378C2.24863 27.8378 2.80638 27.2802 2.80638 26.5925V23.3642H8.92601V26.5925C8.92601 27.2802 9.48376 27.8378 10.1717 27.8378C10.8597 27.8378 11.4174 27.2802 11.4174 26.5925V17.663C11.4174 16.9752 10.8597 16.4177 10.1717 16.4177Z" fill="white"/>
<path d="M43.4895 4.61607C42.8016 4.61607 42.2438 5.17361 42.2438 5.86132C42.2438 7.72188 40.7297 9.23544 38.8684 9.23544C37.0072 9.23544 35.493 7.72188 35.493 5.86132V1.38175C35.493 0.694043 34.9353 0.136505 34.2473 0.136505C33.5593 0.136505 33.0016 0.694043 33.0016 1.38175V5.86132C33.0016 9.09497 35.6335 11.7259 38.8684 11.7259C42.1033 11.7259 44.7353 9.09497 44.7353 5.86132C44.7353 5.17361 44.1775 4.61607 43.4895 4.61607Z" fill="white"/>
<path d="M43.4895 20.8902C42.8016 20.8902 42.2438 21.4478 42.2438 22.1355C42.2438 23.996 40.7297 25.5096 38.8684 25.5096C37.0072 25.5096 35.493 23.996 35.493 22.1355V17.6559C35.493 16.9682 34.9353 16.4107 34.2473 16.4107C33.5593 16.4107 33.0016 16.9682 33.0016 17.6559V22.1355C33.0016 25.3691 35.6335 28.0001 38.8684 28.0001C42.1033 28.0001 44.7353 25.3691 44.7353 22.1355C44.7353 21.4478 44.1775 20.8902 43.4895 20.8902Z" fill="white"/>
</svg>
