<svg width="84" height="24" viewBox="0 0 84 24" fill="none" xmlns="http://www.w3.org/2000/svg">
<path d="M83.5345 17.0172H80.1272V0H76.5841V17.0172H73.1767V20.5668H76.5841V24H80.1272V20.5668H83.5345V17.0172Z" fill="white"/>
<path d="M64.0345 6.97629V3.43319H60.6336V0H57.0841V3.43319H53.6767V6.97629H57.0841V10.2284H53.6767V13.7716H57.0841V17.0172H53.6767V20.5668H57.0841V24H60.6336V20.5668H64.0345V17.0172H60.6336V13.7716H64.0345V10.2284H60.6336V6.97629H64.0345Z" fill="white"/>
<path d="M42.6013 0H39.0582V24H42.6013V0Z" fill="white"/>
<path d="M0 0L2.8319 24H6.38147L3.54957 0H0Z" fill="white"/>
<path d="M10.3707 0H6.82758V24H10.3707V0Z" fill="white"/>
<path d="M26.8319 0H23.2823L26.1142 24H29.6638L26.8319 0Z" fill="white"/>
<path d="M22.8297 0H19.2866V24H22.8297V0Z" fill="white"/>
</svg>
