<svg width="70" height="24" viewBox="0 0 70 24" fill="none" xmlns="http://www.w3.org/2000/svg">
<path d="M24.8016 18.1395L26.6814 12.5302L28.5331 18.1116H24.8016V18.1395ZM17.6754 23.7488H22.501L23.4269 21.1256H29.8236L30.7495 23.7488H35.519L29.4589 6.97674H24.3246L17.6754 23.7767V23.7488ZM41.7194 15.2651L48.0321 23.7488H51.9599V6.97674H47.4148V16.1302L41.7475 6.97674H37.3707V23.7767H41.7475V15.293L41.7194 15.2651ZM0 0L8.501 23.8046H13.5511L21.3226 4.10233H69.5792L70 0H17.5912L11.1383 16.3256L5.33066 0H0ZM68.513 11.7209H64.4729C64.0802 10.7163 63.6313 9.96279 61.3868 9.96279C59.7876 9.96279 59.1423 10.6047 59.1423 11.2465C59.1423 11.9442 59.7034 12.5581 61.4148 12.9209L65.0621 13.9256C67.503 14.5674 68.6533 16.4651 68.6533 18.4744C68.6533 19.5907 68.4289 20.986 67.3627 22.0744C66.5491 22.9116 65.3427 24 61.3587 24C55.8597 24 54.0641 20.5116 54.0641 18.4186H58.3287C58.7495 19.9535 59.8156 20.5395 61.8918 20.5395C63.3226 20.5395 64.5852 20.0372 64.5852 18.9209C64.5852 17.8605 63.6874 17.4698 62.509 17.1628L59.6192 16.3814C58.2164 15.9628 57.0381 15.6 56.2244 14.9023C55.7241 14.4701 55.3289 13.9305 55.0688 13.3242C54.8087 12.7179 54.6903 12.0608 54.7228 11.4024C54.7552 10.744 54.9375 10.1015 55.2559 9.52336C55.5744 8.94526 56.0207 8.44664 56.5611 8.06512C57.8798 7.08837 59.1984 6.61395 61.3307 6.61395C63.7996 6.61395 65.2585 7.31163 66.3527 8.09302C67.3347 8.76279 68.513 10.4093 68.513 11.7209Z" fill="white"/>
</svg>
